<?xml version="1.0" standalone="no"?><svg xmlns="http://www.w3.org/2000/svg" viewBox="0 0 1440 320"><path fill="#5000ca" fill-opacity="1" d="M0,160L8.9,160C17.8,160,36,160,53,181.3C71.1,203,89,245,107,266.7C124.4,288,142,288,160,261.3C177.8,235,196,181,213,176C231.1,171,249,213,267,202.7C284.4,192,302,128,320,122.7C337.8,117,356,171,373,213.3C391.1,256,409,288,427,293.3C444.4,299,462,277,480,234.7C497.8,192,516,128,533,133.3C551.1,139,569,213,587,218.7C604.4,224,622,160,640,149.3C657.8,139,676,181,693,176C711.1,171,729,117,747,85.3C764.4,53,782,43,800,64C817.8,85,836,139,853,186.7C871.1,235,889,277,907,288C924.4,299,942,277,960,256C977.8,235,996,213,1013,176C1031.1,139,1049,85,1067,69.3C1084.4,53,1102,75,1120,96C1137.8,117,1156,139,1173,154.7C1191.1,171,1209,181,1227,186.7C1244.4,192,1262,192,1280,160C1297.8,128,1316,64,1333,58.7C1351.1,53,1369,107,1387,144C1404.4,181,1422,203,1431,213.3L1440,224L1440,320L1431.1,320C1422.2,320,1404,320,1387,320C1368.9,320,1351,320,1333,320C1315.6,320,1298,320,1280,320C1262.2,320,1244,320,1227,320C1208.9,320,1191,320,1173,320C1155.6,320,1138,320,1120,320C1102.2,320,1084,320,1067,320C1048.9,320,1031,320,1013,320C995.6,320,978,320,960,320C942.2,320,924,320,907,320C888.9,320,871,320,853,320C835.6,320,818,320,800,320C782.2,320,764,320,747,320C728.9,320,711,320,693,320C675.6,320,658,320,640,320C622.2,320,604,320,587,320C568.9,320,551,320,533,320C515.6,320,498,320,480,320C462.2,320,444,320,427,320C408.9,320,391,320,373,320C355.6,320,338,320,320,320C302.2,320,284,320,267,320C248.9,320,231,320,213,320C195.6,320,178,320,160,320C142.2,320,124,320,107,320C88.9,320,71,320,53,320C35.6,320,18,320,9,320L0,320Z"></path></svg>